<svg width="24" height="24" viewBox="0 0 24 24" fill="none" xmlns="http://www.w3.org/2000/svg">
<path d="M15.7298 3.87519L15.7298 3.87519V3.88V4.82C15.7298 5.58386 15.1136 6.2 14.3498 6.2H9.63977C8.87591 6.2 8.25977 5.58386 8.25977 4.82V3.88C8.25977 3.11959 8.88245 2.5 9.64977 2.5H14.3498C15.1181 2.5 15.7371 3.11947 15.7298 3.87519Z" stroke="#005CE8"/>
<path d="M14.35 8.20998C16.2162 8.20998 17.74 6.68612 17.74 4.81998C17.74 4.65344 17.9252 4.51919 18.1077 4.61275C19.3589 5.27943 20.21 6.60227 20.21 8.11998V17.53C20.21 19.7138 18.4239 21.5 16.24 21.5H7.76004C5.57618 21.5 3.79004 19.7138 3.79004 17.53V8.11998C3.79004 6.60226 4.64117 5.27942 5.89236 4.61274C6.0749 4.5192 6.26004 4.65345 6.26004 4.81998C6.26004 6.68612 7.7839 8.20998 9.65004 8.20998H14.35ZM11.6936 17.0835L15.6936 13.0835C16.1789 12.5983 16.1789 11.8017 15.6936 11.3164C15.2083 10.8312 14.4117 10.8312 13.9265 11.3164L10.81 14.4329L10.1936 13.8164C9.70833 13.3312 8.91175 13.3312 8.42649 13.8164C7.94122 14.3017 7.94122 15.0983 8.42649 15.5835L9.92649 17.0835C10.1752 17.3322 10.4946 17.45 10.81 17.45C11.1255 17.45 11.4449 17.3322 11.6936 17.0835Z" stroke="#005CE8"/>
</svg>
